# Blender v2.90.1 OBJ File: 'LevelDesigns.blend'
# www.blender.org
o Box_Cube
v 2.800000 3.500000 2.800000
v 2.800000 3.500000 -2.799999
v 2.800000 3.395000 -2.799999
v 2.800000 3.395000 2.800000
v 2.800000 2.799999 3.500000
v -2.800000 2.799999 3.500000
v -2.800000 2.799999 3.395000
v 2.800000 2.799999 3.395000
v -3.500000 2.799999 2.800000
v -3.500000 2.800000 -2.799999
v -3.395000 2.800000 -2.799999
v -3.395000 2.799999 2.800000
v 2.800000 -3.500000 2.799999
v -2.800000 -3.500000 2.799999
v -2.800000 -3.395000 2.799999
v 2.800000 -3.395000 2.799999
v 3.500000 2.800000 -2.799999
v 3.500000 2.799999 2.800000
v 3.395000 2.799999 2.800000
v 3.395000 2.800000 -2.799999
v -2.800000 2.800000 -3.500000
v 2.800000 2.800000 -3.500000
v 2.800000 2.800000 -3.395000
v -2.800000 2.800000 -3.395000
v -2.800000 -2.800000 3.500000
v -3.500000 3.500000 3.500000
v -3.500000 -3.500000 3.500000
v 2.800000 -2.800000 3.500000
v 3.500000 -3.500000 3.500000
v 3.500000 3.500000 3.500000
v -2.800000 -2.799999 -3.500000
v 2.800000 -2.799999 -3.500000
v 3.500000 -3.500000 -3.500000
v -3.500000 -3.500000 -3.500000
v 3.500000 3.500000 -3.500000
v -3.500000 3.500000 -3.500000
v -2.800000 3.500000 2.800000
v -2.800000 3.500000 -2.799999
v 3.500000 -2.799999 -2.800000
v 3.500000 -2.800000 2.799999
v -3.500000 -2.800000 2.799999
v -3.500000 -2.799999 -2.800000
v -2.800000 -3.500000 -2.800000
v 2.800000 -3.500000 -2.800000
v 3.395000 -2.800000 2.799999
v 3.395000 -0.000000 -0.000000
v 3.395000 -2.799999 -2.800000
v -2.800000 -2.800000 3.395000
v -0.000000 -0.000001 3.395000
v 2.800000 -2.800000 3.395000
v -2.800000 3.395000 -2.799999
v -2.800000 3.395000 2.800000
v -0.000000 3.395000 0.000000
v -3.395000 -2.799999 -2.800000
v -3.395000 -0.000000 -0.000000
v -3.395000 -2.800000 2.799999
v -0.000000 0.000001 -3.395000
v 2.800000 -2.799999 -3.395000
v -2.800000 -2.799999 -3.395000
v 2.800000 -3.395000 -2.800000
v -0.000000 -3.395000 -0.000001
v -2.800000 -3.395000 -2.800000
vt 0.650000 0.525000
vt 0.650000 0.725000
vt 0.650000 0.725000
vt 0.600000 0.975000
vt 0.600000 0.775000
vt 0.600000 0.775000
vt 0.600000 0.225000
vt 0.600000 0.025000
vt 0.600000 0.025000
vt 0.150000 0.725000
vt 0.350000 0.725000
vt 0.350000 0.725000
vt 0.600000 0.725000
vt 0.600000 0.525000
vt 0.600000 0.525000
vt 0.600000 0.475000
vt 0.600000 0.275000
vt 0.600000 0.275000
vt 0.400000 0.975000
vt 0.625000 1.000000
vt 0.375000 1.000000
vt 0.375000 0.750000
vt 0.625000 0.750000
vt 0.400000 0.775000
vt 0.400000 0.275000
vt 0.375000 0.500000
vt 0.375000 0.250000
vt 0.400000 0.475000
vt 0.625000 0.500000
vt 0.625000 0.250000
vt 0.875000 0.750000
vt 0.850000 0.725000
vt 0.875000 0.500000
vt 0.850000 0.525000
vt 0.400000 0.725000
vt 0.400000 0.525000
vt 0.400000 0.025000
vt 0.375000 0.000000
vt 0.625000 0.000000
vt 0.400000 0.225000
vt 0.150000 0.525000
vt 0.125000 0.750000
vt 0.125000 0.500000
vt 0.350000 0.525000
vt 0.600000 0.725000
vt 0.400000 0.725000
vt 0.500000 0.625000
vt 0.400000 0.525000
vt 0.600000 0.975000
vt 0.400000 0.975000
vt 0.500000 0.875000
vt 0.400000 0.775000
vt 0.850000 0.525000
vt 0.850000 0.725000
vt 0.750000 0.625000
vt 0.650000 0.525000
vt 0.600000 0.225000
vt 0.400000 0.225000
vt 0.500000 0.125000
vt 0.400000 0.025000
vt 0.600000 0.475000
vt 0.500000 0.375000
vt 0.400000 0.275000
vt 0.400000 0.475000
vt 0.350000 0.525000
vt 0.250000 0.625000
vt 0.150000 0.725000
vt 0.150000 0.525000
vn -1.0000 0.0000 0.0000
vn 0.0000 -1.0000 0.0000
vn 0.0000 0.0000 -1.0000
vn 0.0000 -0.0000 1.0000
vn -0.0000 1.0000 0.0000
vn 1.0000 -0.0000 0.0000
s 1
f 2/1/1 4/2/1 1/3/1
f 6/4/2 8/5/2 5/6/2
f 10/7/2 12/8/2 9/9/2
f 14/10/3 16/11/3 13/12/3
f 18/13/2 20/14/2 17/15/2
f 22/16/2 24/17/2 21/18/2
f 25/19/4 26/20/4 27/21/4
f 5/6/4 29/22/4 30/23/4
f 6/4/4 30/23/4 26/20/4
f 28/24/4 27/21/4 29/22/4
f 31/25/3 33/26/3 34/27/3
f 32/28/3 35/29/3 33/26/3
f 21/18/3 34/27/3 36/30/3
f 22/16/3 36/30/3 35/29/3
f 1/3/5 26/31/5 30/23/5
f 2/1/5 30/23/5 35/29/5
f 37/32/5 36/33/5 26/31/5
f 38/34/5 35/29/5 36/33/5
f 17/15/6 33/26/6 35/29/6
f 40/35/6 30/23/6 29/22/6
f 18/13/6 35/29/6 30/23/6
f 39/36/6 29/22/6 33/26/6
f 41/37/1 34/27/1 27/38/1
f 9/9/1 27/38/1 26/39/1
f 42/40/1 36/30/1 34/27/1
f 10/7/1 26/39/1 36/30/1
f 43/41/2 27/42/2 34/43/2
f 44/44/2 34/43/2 33/26/2
f 14/10/2 29/22/2 27/42/2
f 13/12/2 33/26/2 29/22/2
f 19/45/6 45/46/6 46/47/6
f 17/15/4 47/48/4 39/36/4
f 39/36/5 45/46/5 40/35/5
f 40/35/3 19/45/3 18/13/3
f 7/49/4 48/50/4 49/51/4
f 25/19/6 7/49/6 6/4/6
f 28/24/5 48/50/5 25/19/5
f 5/6/1 50/52/1 28/24/1
f 51/53/5 52/54/5 53/55/5
f 37/32/6 51/53/6 38/34/6
f 1/3/3 52/54/3 37/32/3
f 38/34/4 3/56/4 2/1/4
f 11/57/1 54/58/1 55/59/1
f 9/9/3 56/60/3 41/37/3
f 42/40/4 11/57/4 10/7/4
f 41/37/5 54/58/5 42/40/5
f 24/17/3 23/61/3 57/62/3
f 32/28/1 23/61/1 22/16/1
f 21/18/6 59/63/6 31/25/6
f 31/25/5 58/64/5 32/28/5
f 60/65/2 16/11/2 61/66/2
f 43/41/6 15/67/6 14/10/6
f 13/12/1 60/65/1 44/44/1
f 44/44/4 62/68/4 43/41/4
f 56/60/1 12/8/1 55/59/1
f 12/8/1 11/57/1 55/59/1
f 54/58/1 56/60/1 55/59/1
f 58/64/3 59/63/3 57/62/3
f 59/63/3 24/17/3 57/62/3
f 23/61/3 58/64/3 57/62/3
f 47/48/6 20/14/6 46/47/6
f 20/14/6 19/45/6 46/47/6
f 45/46/6 47/48/6 46/47/6
f 50/52/4 8/5/4 49/51/4
f 48/50/4 50/52/4 49/51/4
f 8/5/4 7/49/4 49/51/4
f 4/2/5 3/56/5 53/55/5
f 3/56/5 51/53/5 53/55/5
f 52/54/5 4/2/5 53/55/5
f 15/67/2 62/68/2 61/66/2
f 62/68/2 60/65/2 61/66/2
f 16/11/2 15/67/2 61/66/2
f 2/1/1 3/56/1 4/2/1
f 6/4/2 7/49/2 8/5/2
f 10/7/2 11/57/2 12/8/2
f 14/10/3 15/67/3 16/11/3
f 18/13/2 19/45/2 20/14/2
f 22/16/2 23/61/2 24/17/2
f 25/19/4 6/4/4 26/20/4
f 5/6/4 28/24/4 29/22/4
f 6/4/4 5/6/4 30/23/4
f 28/24/4 25/19/4 27/21/4
f 31/25/3 32/28/3 33/26/3
f 32/28/3 22/16/3 35/29/3
f 21/18/3 31/25/3 34/27/3
f 22/16/3 21/18/3 36/30/3
f 1/3/5 37/32/5 26/31/5
f 2/1/5 1/3/5 30/23/5
f 37/32/5 38/34/5 36/33/5
f 38/34/5 2/1/5 35/29/5
f 17/15/6 39/36/6 33/26/6
f 40/35/6 18/13/6 30/23/6
f 18/13/6 17/15/6 35/29/6
f 39/36/6 40/35/6 29/22/6
f 41/37/1 42/40/1 34/27/1
f 9/9/1 41/37/1 27/38/1
f 42/40/1 10/7/1 36/30/1
f 10/7/1 9/9/1 26/39/1
f 43/41/2 14/10/2 27/42/2
f 44/44/2 43/41/2 34/43/2
f 14/10/2 13/12/2 29/22/2
f 13/12/2 44/44/2 33/26/2
f 17/15/4 20/14/4 47/48/4
f 39/36/5 47/48/5 45/46/5
f 40/35/3 45/46/3 19/45/3
f 25/19/6 48/50/6 7/49/6
f 28/24/5 50/52/5 48/50/5
f 5/6/1 8/5/1 50/52/1
f 37/32/6 52/54/6 51/53/6
f 1/3/3 4/2/3 52/54/3
f 38/34/4 51/53/4 3/56/4
f 9/9/3 12/8/3 56/60/3
f 42/40/4 54/58/4 11/57/4
f 41/37/5 56/60/5 54/58/5
f 32/28/1 58/64/1 23/61/1
f 21/18/6 24/17/6 59/63/6
f 31/25/5 59/63/5 58/64/5
f 43/41/6 62/68/6 15/67/6
f 13/12/1 16/11/1 60/65/1
f 44/44/4 60/65/4 62/68/4
